<svg version="1.1" xmlns="http://www.w3.org/2000/svg" xmlns:xlink="http://www.w3.org/1999/xlink" width="216.5" height="190.50263" viewBox="0,0,216.5,190.50263"><g transform="translate(-131.79098,-84.70968)"><g data-paper-data="{&quot;isPaintingLayer&quot;:true}" fill-rule="nonzero" stroke-linejoin="miter" stroke-miterlimit="10" stroke-dasharray="" stroke-dashoffset="0" style="mix-blend-mode: normal"><path d="M216.54098,133.95968c0,47.68124 -18.35632,46.5 -41,46.5c-22.64367,0 -39.19934,4.11803 -41,-46.5c-1.5211,-42.7595 18.35632,-46.5 41,-46.5c22.64368,0 41,1.81876 41,46.5z" fill="#4388bd" stroke="#42519d" stroke-width="5.5" stroke-linecap="butt"/><path d="M177.56931,132.47996c0,0 32.29366,-23.7934 68.18952,-21.18398c31.23074,2.27029 65.59639,45.52096 65.59639,45.52096l-11.96793,-54.10684l-5.81622,23.62858c0,0 -15.1902,-28.97935 -46.51614,-29.50566c-37.44697,-0.62915 -69.48562,35.64694 -69.48562,35.64694z" fill="#e4a600" stroke="none" stroke-width="0" stroke-linecap="round"/><path d="M345.54098,225.95968c0,47.68124 -18.35632,46.5 -41,46.5c-22.64368,0 -39.19934,4.11804 -41,-46.5c-1.5211,-42.7595 18.35632,-46.5 41,-46.5c22.64368,0 41,1.81876 41,46.5z" fill="#4388bd" stroke="#42519d" stroke-width="5.5" stroke-linecap="butt"/><path d="M306.16433,233.4146c0,0 -33.11229,22.64029 -68.89386,18.7672c-31.1313,-3.36974 -63.95105,-47.80489 -63.95105,-47.80489l10.05327,54.49508l6.64549,-23.40888c0,0 14.15926,29.49678 45.44719,31.12698c37.40153,1.94873 70.69896,-33.17548 70.69896,-33.17548z" fill="#e4a600" stroke="none" stroke-width="0" stroke-linecap="round"/></g></g></svg>
